#!OML:ASF I:\Actors\actors\Patient Classification 2\Patient 1\Session 1\actor1.ASF
:FULLY-SPECIFIED
:DEGREES
705
root -0.509138 18.7109 5.89027 3.35398 -2.89924 -1.39425
lowerback 1.98506 2.65841 -1.79845
upperback -2.09855 3.51922 1.05091
thorax -3.44621 1.81293 1.90861
lowerneck -14.6366 -1.1868 -0.846919
upperneck 36.1385 -1.13717 -0.866899
head 15.0258 -0.702076 -0.398896
rclavicle -1.65922e-014 5.71506e-015
rhumerus -20.101 45.3473 -65.3427
rradius 98.7135
rwrist 18.4319
rhand -31.823 -41.8677
rfingers 7.12502
rthumb -5.07781 -431.787
lclavicle -1.65922e-014 5.71506e-015
lhumerus -42.6984 -28.4234 98.5342
lradius 110.091
lwrist 33.7693
lhand -12.1105 -22.2686
lfingers 7.12502
lthumb 13.9505 7.24339
rfemur 0 0 0
rtibia 0
rfoot 0 0
rtoes 0
lfemur -5.1079 -7.82315 -13.709
ltibia 21.6962
lfoot -24.7777 16.0751
ltoes -53.4881
706
root -0.510564 18.7105 5.89225 3.33535 -2.83556 -1.40111
lowerback 1.97326 2.65584 -1.75531
upperback -2.08201 3.517 1.03848
thorax -3.4188 1.8102 1.87299
lowerneck -14.6045 -1.17324 -0.836363
upperneck 36.2585 -1.12421 -0.852185
head 15.0759 -0.692555 -0.393179
rclavicle -2.41564e-014 -5.56597e-015
rhumerus -20.8997 45.8574 -67.3227
rradius 99.3267
rwrist 17.2567
rhand -31.5188 -41.9744
rfingers 7.12502
rthumb -4.78411 -431.9
lclavicle -2.41564e-014 -5.56597e-015
lhumerus -42.5577 -28.5908 98.5265
lradius 109.993
lwrist 33.7233
lhand -12.1243 -22.1706
lfingers 7.12502
lthumb 13.9373 7.34226
rfemur 0 0 0
rtibia 0
rfoot 0 0
rtoes 0
lfemur -5.10354 -7.83538 -13.6932
ltibia 21.7169
lfoot -24.7787 16.055
ltoes -53.5554
707
root -0.512072 18.7099 5.89493 3.30154 -2.77609 -1.41626
lowerback 1.96015 2.65904 -1.74969
upperback -2.0585 3.52202 1.05217
thorax -3.38786 1.81231 1.88497
lowerneck -14.5627 -1.14778 -0.820688
upperneck 36.3586 -1.09521 -0.836602
head 15.1143 -0.675255 -0.38496
rclavicle -2.85522e-014 -2.78299e-015
rhumerus -21.7498 46.3565 -69.1962
rradius 99.9802
rwrist 16.284
rhand -31.1199 -42.1636
rfingers 7.12502
rthumb -4.39895 -432.098
lclavicle -2.85522e-014 -2.78299e-015
lhumerus -42.3973 -28.7475 98.5289
lradius 109.923
lwrist 33.6809
lhand -12.169 -22.0181
lfingers 7.12502
lthumb 13.8941 7.49777
rfemur 0 0 0
rtibia 0
rfoot 0 0
rtoes 0
lfemur -5.07597 -7.86426 -13.6736
ltibia 21.7348
lfoot -24.7644 16.0256
ltoes -53.5597
708
root -0.513446 18.71 5.89731 3.28293 -2.75617 -1.43639
lowerback 1.9191 2.66983 -1.77286
upperback -2.0338 3.53723 1.08728
thorax -3.34365 1.82041 1.93589
lowerneck -14.4614 -1.13342 -0.837396
upperneck 36.3425 -1.05407 -0.873506
head 15.0828 -0.66485 -0.389431
rclavicle -3.11655e-014 -1.26725e-014
rhumerus -22.546 46.787 -70.9714
rradius 100.512
rwrist 15.795
rhand -30.8071 -41.951
rfingers 7.12502
rthumb -4.09689 -431.891
lclavicle -3.11655e-014 -1.26725e-014
lhumerus -42.2195 -28.847 98.5553
lradius 109.859
lwrist 33.6535
lhand -12.135 -21.8997
lfingers 7.12502
lthumb 13.9269 7.61391
rfemur 0 0 0
rtibia 0
rfoot 0 0
rtoes 0
lfemur -5.05804 -7.89046 -13.6543
ltibia 21.7485
lfoot -24.7482 16.0357
ltoes -53.583
709
root -0.514907 18.7102 5.89877 3.28622 -2.74865 -1.46019
lowerback 1.87354 2.68786 -1.78545
upperback -2.01896 3.56244 1.11814
thorax -3.30669 1.83332 1.97597
lowerneck -14.3655 -1.14112 -0.899999
upperneck 36.3098 -1.05299 -0.855063
head 15.0453 -0.670117 -0.369225
rclavicle -3.25451e-014 -3.37934e-015
rhumerus -23.2279 47.0843 -72.6491
rradius 100.842
rwrist 15.6485
rhand -30.76 -41.81
rfingers 7.12502
rthumb -4.05143 -431.751
lclavicle -3.25451e-014 -3.37934e-015
lhumerus -42.1115 -28.9358 98.6056
lradius 109.812
lwrist 33.6439
lhand -12.0456 -21.8845
lfingers 7.12502
lthumb 14.013 7.6232
rfemur 0 0 0
rtibia 0
rfoot 0 0
rtoes 0
lfemur -5.07026 -7.90031 -13.6264
ltibia 21.7593
lfoot -24.7318 16.0672
ltoes -53.6419
710
root -0.515665 18.7098 5.89929 3.29816 -2.72159 -1.47169
lowerback 1.85469 2.69998 -1.79337
upperback -2.02065 3.57934 1.14137
thorax -3.3007 1.84226 2.00425
lowerneck -14.2864 -1.15235 -0.934575
upperneck 36.3343 -1.07052 -0.824593
head 15.0391 -0.677692 -0.352731
rclavicle -4.07826e-014 9.93923e-017
rhumerus -23.8437 47.3071 -74.2518
rradius 101.049
rwrist 15.3265
rhand -30.6484 -41.9403
rfingers 7.12502
rthumb -3.94366 -431.884
lclavicle -4.07826e-014 9.93923e-017
lhumerus -42.0829 -29.0009 98.6739
lradius 109.805
lwrist 33.5829
lhand -12.0531 -21.8644
lfingers 7.12502
lthumb 14.0058 7.64381
rfemur 0 0 0
rtibia 0
rfoot 0 0
rtoes 0
lfemur -5.09971 -7.91547 -13.6068
ltibia 21.7703
lfoot -24.7049 16.0666
ltoes -53.6491
711
root -0.516176 18.7098 5.89943 3.30369 -2.68974 -1.48862
lowerback 1.85647 2.71402 -1.76956
upperback -2.02659 3.59886 1.14065
thorax -3.30727 1.85153 1.98895
lowerneck -14.2186 -1.15722 -0.911151
upperneck 36.3842 -1.08758 -0.817351
head 15.0469 -0.680262 -0.356469
rclavicle -1.59887e-014 4.07509e-015
rhumerus -24.4077 47.5013 -75.7672
rradius 101.223
rwrist 14.4217
rhand -30.1564 -42.0776
rfingers 7.12502
rthumb -3.46848 -432.029
lclavicle -1.59887e-014 4.07509e-015
lhumerus -42.0308 -29.0778 98.6961
lradius 109.791
lwrist 33.5171
lhand -12.1031 -21.8276
lfingers 7.12502
lthumb 13.9577 7.68387
rfemur 0 0 0
rtibia 0
rfoot 0 0
rtoes 0
lfemur -5.12325 -7.88984 -13.5769
ltibia 21.7837
lfoot -24.6734 16.0368
ltoes -53.6807
712
root -0.517025 18.7099 5.89987 3.30734 -2.67663 -1.51989
lowerback 1.85788 2.74 -1.71608
upperback -2.0355 3.63435 1.10771
thorax -3.3134 1.8676 1.92311
lowerneck -14.2048 -1.15321 -0.874527
upperneck 36.4494 -1.10757 -0.775088
head 15.075 -0.677351 -0.348947
rclavicle -1.95024e-014 -1.14301e-015
rhumerus -24.9649 47.6575 -77.2037
rradius 101.408
rwrist 13.4696
rhand -29.5997 -42.5095
rfingers 7.12502
rthumb -2.93085 -432.469
lclavicle -1.95024e-014 -1.14301e-015
lhumerus -41.9357 -29.1866 98.6683
lradius 109.739
lwrist 33.5084
lhand -12.1078 -21.7881
lfingers 7.12502
lthumb 13.9532 7.72371
rfemur 0 0 0
rtibia 0
rfoot 0 0
rtoes 0
lfemur -5.13728 -7.84687 -13.5343
ltibia 21.7988
lfoot -24.6668 16.0399
ltoes -53.7817
713
root -0.51775 18.7101 5.90102 3.31391 -2.67284 -1.5539
lowerback 1.85163 2.76233 -1.67393
upperback -2.04063 3.66465 1.07468
thorax -3.31168 1.88127 1.86429
lowerneck -14.2224 -1.14971 -0.858783
upperneck 36.5014 -1.13724 -0.692351
head 15.1046 -0.675916 -0.322516
rclavicle -6.5269e-014 -6.95746e-016
rhumerus -25.5483 47.8403 -78.5378
rradius 101.655
rwrist 13.0483
rhand -29.3753 -42.8042
rfingers 7.12502
rthumb -2.71416 -432.767
lclavicle -6.5269e-014 -6.95746e-016
lhumerus -41.8164 -29.2713 98.6171
lradius 109.674
lwrist 33.5117
lhand -12.0946 -21.7213
lfingers 7.12502
lthumb 13.9659 7.78959
rfemur 0 0 0
rtibia 0
rfoot 0 0
rtoes 0
lfemur -5.14221 -7.86602 -13.4966
ltibia 21.8151
lfoot -24.6928 16.0364
ltoes -53.7597
714
root -0.518989 18.7102 5.90253 3.31715 -2.66126 -1.55888
lowerback 1.84405 2.78733 -1.69527
upperback -2.03784 3.697 1.06045
thorax -3.30649 1.89765 1.86031
lowerneck -14.2158 -1.15517 -0.881482
upperneck 36.526 -1.17426 -0.59483
head 15.116 -0.680788 -0.283798
rclavicle -5.4015e-015 -3.23025e-015
rhumerus -26.1503 48.069 -79.6862
rradius 101.949
rwrist 12.9849
rhand -29.3418 -42.5952
rfingers 7.12502
rthumb -2.68177 -432.558
lclavicle -5.4015e-015 -3.23025e-015
lhumerus -41.7244 -29.3569 98.5949
lradius 109.632
lwrist 33.5006
lhand -12.113 -21.6736
lfingers 7.12502
lthumb 13.9481 7.83855
rfemur 0 0 0
rtibia 0
rfoot 0 0
rtoes 0
lfemur -5.14465 -7.88349 -13.4869
ltibia 21.8278
lfoot -24.684 15.9953
ltoes -53.6602
715
root -0.521009 18.7105 5.90366 3.32724 -2.64692 -1.54971
lowerback 1.84046 2.8142 -1.76956
upperback -2.04746 3.73069 1.06545
thorax -3.3213 1.91653 1.90489
lowerneck -14.1958 -1.16361 -0.963297
upperneck 36.5357 -1.19669 -0.498092
head 15.1177 -0.687755 -0.232225
rclavicle 4.35722e-014 1.04362e-014
rhumerus -26.7054 48.2995 -80.6623
rradius 102.195
rwrist 12.6873
rhand -29.1713 -42.4011
rfingers 7.12502
rthumb -2.51714 -432.366
lclavicle 4.35722e-014 1.04362e-014
lhumerus -41.6923 -29.4299 98.6098
lradius 109.61
lwrist 33.5119
lhand -12.0987 -21.6628
lfingers 7.12502
lthumb 13.9618 7.84836
rfemur 0 0 0
rtibia 0
rfoot 0 0
rtoes 0
lfemur -5.15545 -7.89622 -13.4878
ltibia 21.8314
lfoot -24.671 15.9783
ltoes -53.6191
716
root -0.522408 18.7108 5.90489 3.32892 -2.63482 -1.54758
lowerback 1.85961 2.82838 -1.8378
upperback -2.06763 3.74747 1.07499
thorax -3.35901 1.92719 1.95014
lowerneck -14.1781 -1.17113 -1.02805
upperneck 36.5642 -1.21402 -0.426758
head 15.1287 -0.69391 -0.193675
rclavicle -3.03825e-014 1.98785e-016
rhumerus -27.1571 48.5518 -81.5987
rradius 102.375
rwrist 11.8363
rhand -28.6805 -42.6974
rfingers 7.12502
rthumb -2.0431 -432.667
lclavicle -3.03825e-014 1.98785e-016
lhumerus -41.6839 -29.454 98.6146
lradius 109.584
lwrist 33.5682
lhand -12.0636 -21.6245
lfingers 7.12502
lthumb 13.9957 7.88436
rfemur 0 0 0
rtibia 0
rfoot 0 0
rtoes 0
lfemur -5.14939 -7.96523 -13.4913
ltibia 21.8289
lfoot -24.7111 16.0098
ltoes -53.6049
717
root -0.522618 18.7099 5.90644 3.31691 -2.61831 -1.54087
lowerback 1.87679 2.83317 -1.88867
upperback -2.07548 3.75188 1.07285
thorax -3.3803 1.93084 1.97486
lowerneck -14.1854 -1.17153 -1.11524
upperneck 36.6698 -1.24961 -0.260507
head 15.1841 -0.697654 -0.114893
rclavicle 1.37923e-014 4.96962e-015
rhumerus -27.5408 48.7963 -82.5586
rradius 102.477
rwrist 10.917
rhand -28.2707 -43.1708
rfingers 7.12502
rthumb -1.64731 -433.144
lclavicle 1.37923e-014 4.96962e-015
lhumerus -41.6554 -29.4614 98.6061
lradius 109.557
lwrist 33.5886
lhand -12.0914 -21.508
lfingers 7.12502
lthumb 13.9689 8.00273
rfemur 0 0 0
rtibia 0
rfoot 0 0
rtoes 0
lfemur -5.13326 -7.98298 -13.5027
ltibia 21.825
lfoot -24.726 16.0268
ltoes -53.6641
718
root -0.522225 18.7089 5.9076 3.31242 -2.60881 -1.56281
lowerback 1.86869 2.83733 -1.89152
upperback -2.07307 3.75715 1.06309
thorax -3.37303 1.93332 1.96664
lowerneck -14.1865 -1.16971 -1.26082
upperneck 36.7768 -1.30567 0.0155826
head 15.2409 -0.702982 0.0174289
rclavicle -6.72079e-014 -9.7653e-015
rhumerus -27.889 48.9685 -83.4545
rradius 102.503
rwrist 10.588
rhand -28.2028 -43.3244
rfingers 7.12502
rthumb -1.58175 -433.298
lclavicle -6.72079e-014 -9.7653e-015
lhumerus -41.5941 -29.4612 98.5993
lradius 109.53
lwrist 33.524
lhand -12.095 -21.402
lfingers 7.12502
lthumb 13.9655 8.10893
rfemur 0 0 0
rtibia 0
rfoot 0 0
rtoes 0
lfemur -5.13011 -7.93725 -13.4755
ltibia 21.8252
lfoot -24.7111 15.9996
ltoes -53.7345
719
root -0.521799 18.7088 5.90827 3.32323 -2.60245 -1.57418
lowerback 1.84207 2.84131 -1.884
upperback -2.0672 3.76228 1.03618
thorax -3.34982 1.93507 1.93612
lowerneck -14.1715 -1.17155 -1.26884
upperneck 36.7925 -1.32713 0.0715381
head 15.2458 -0.70539 0.0389004
rclavicle 5.45867e-014 1.02374e-014
rhumerus -28.2013 49.0717 -84.2633
rradius 102.544
rwrist 10.5292
rhand -27.9458 -43.5203
rfingers 7.12502
rthumb -1.33356 -433.496
lclavicle 5.45867e-014 1.02374e-014
lhumerus -41.5188 -29.4575 98.5971
lradius 109.494
lwrist 33.4419
lhand -12.0376 -21.3412
lfingers 7.12502
lthumb 14.0207 8.16596
rfemur 0 0 0
rtibia 0
rfoot 0 0
rtoes 0
lfemur -5.14339 -7.95503 -13.4624
ltibia 21.8304
lfoot -24.711 15.9908
ltoes -53.6931
720
root -0.521352 18.7089 5.90897 3.33268 -2.58223 -1.56003
lowerback 1.81344 2.8432 -1.90084
upperback -2.05587 3.76376 1.00674
thorax -3.32111 1.93546 1.91705
lowerneck -14.1779 -1.17301 -1.19154
upperneck 36.7906 -1.31842 -0.0195008
head 15.2446 -0.70355 -0.0117999
rclavicle 7.71205e-015 -7.16867e-015
rhumerus -28.5761 49.1209 -85.0755
rradius 102.672
rwrist 9.96955
rhand -27.2514 -43.9092
rfingers 7.12502
rthumb -0.662929 -433.888
lclavicle 7.71205e-015 -7.16867e-015
lhumerus -41.4661 -29.4634 98.6019
lradius 109.466
lwrist 33.3842
lhand -12.0159 -21.3185
lfingers 7.12502
lthumb 14.0416 8.18716
rfemur 0 0 0
rtibia 0
rfoot 0 0
rtoes 0
lfemur -5.15672 -7.98953 -13.4781
ltibia 21.8352
lfoot -24.7154 15.9891
ltoes -53.6468
